<svg width="16px" height="13px" viewBox="0 0 16 13" version="1.1" xmlns="http://www.w3.org/2000/svg" xmlns:xlink="http://www.w3.org/1999/xlink">
    <g id="Symbols" stroke="none" stroke-width="1" fill="none" fill-rule="evenodd">
        <g id="footer" transform="translate(-1041.000000, -223.000000)" fill="#FFFFFF" fill-rule="nonzero">
            <g id="Twitter" transform="translate(1017.000000, 199.000000)">
                <g id="Twitter-Icon" transform="translate(14.000000, 13.000000)">
                    <g id="twitter" transform="translate(10.000000, 11.000000)">
                        <path d="M13.8528,3.449875 C13.8592,3.5815 13.8616,3.71475 13.8616,3.846375 C13.8616,7.90075 10.824,12.57425 5.2696,12.57425 C3.5632,12.57425 1.9768,12.0664375 0.64,11.1954375 C0.8768,11.223875 1.1168,11.2385 1.36,11.2385 C2.776,11.2385 4.0776,10.74775 5.1104,9.9263125 C3.7896,9.901125 2.6736,9.0155 2.2896,7.79675 C2.4736,7.8316875 2.6632,7.850375 2.8576,7.850375 C3.1336,7.850375 3.4008,7.8138125 3.6536,7.7439375 C2.272,7.4611875 1.2312,6.222125 1.2312,4.73525 C1.2312,4.72225 1.2312,4.7100625 1.2312,4.6970625 C1.6384,4.927 2.1048,5.065125 2.5992,5.081375 C1.7888,4.5305 1.2552,3.592875 1.2552,2.5276875 C1.2552,1.96625 1.404,1.4389375 1.6648,0.9855625 C3.1536,2.842125 5.38,4.0625 7.8896,4.190875 C7.8384,3.9658125 7.812,3.732625 7.812,3.4913125 C7.812,1.7980625 9.1632,0.42575 10.8312,0.42575 C11.7,0.42575 12.4848,0.7970625 13.036,1.3934375 C13.7232,1.2553125 14.3696,1.0001875 14.9536,0.6491875 C14.728,1.365 14.2488,1.96625 13.6256,2.3456875 C14.2368,2.2709375 14.8176,2.107625 15.36,1.8630625 C14.9552,2.4789375 14.4432,3.0184375 13.8528,3.449875 Z" id="Shape"></path>
                    </g>
                </g>
            </g>
        </g>
    </g>
</svg>